<?xml version="1.0" encoding="iso-8859-1"?>
<!-- Generator: Adobe Illustrator 19.0.0, SVG Export Plug-In . SVG Version: 6.00 Build 0)  -->
<svg version="1.1" id="Layer_1" xmlns="http://www.w3.org/2000/svg" xmlns:xlink="http://www.w3.org/1999/xlink" x="0px" y="0px"
	 viewBox="0 0 512 512" style="enable-background:new 0 0 512 512;" xml:space="preserve">
<g>
	<g>
		<g>
			<path d="M145.067,187.733h102.4c4.71,0,8.533-3.823,8.533-8.533s-3.823-8.533-8.533-8.533h-102.4
				c-4.71,0-8.533,3.823-8.533,8.533S140.356,187.733,145.067,187.733z"/>
			<path d="M469.333,68.267c-4.719,0-8.533,3.823-8.533,8.533s3.814,8.533,8.533,8.533c14.114,0,25.6,11.486,25.6,25.6v358.4
				c0,14.114-11.486,25.6-25.6,25.6H42.667c-14.114,0-25.6-11.486-25.6-25.6v-358.4c0-14.114,11.486-25.6,25.6-25.6
				c4.71,0,8.533-3.823,8.533-8.533s-3.823-8.533-8.533-8.533C19.14,68.267,0,87.407,0,110.933v358.4C0,492.86,19.14,512,42.667,512
				h426.667C492.86,512,512,492.86,512,469.333v-358.4C512,87.407,492.86,68.267,469.333,68.267z"/>
			<path d="M221.867,298.667c0-4.71-3.823-8.533-8.533-8.533h-68.267c-4.71,0-8.533,3.823-8.533,8.533s3.823,8.533,8.533,8.533
				h68.267C218.044,307.2,221.867,303.377,221.867,298.667z"/>
			<path d="M196.267,358.4H230.4c4.71,0,8.533-3.823,8.533-8.533s-3.823-8.533-8.533-8.533h-34.133c-4.71,0-8.533,3.823-8.533,8.533
				S191.556,358.4,196.267,358.4z"/>
			<path d="M76.8,307.2c4.71,0,8.533-3.823,8.533-8.533V85.333h315.733c4.719,0,8.533-3.823,8.533-8.533s-3.814-8.533-8.533-8.533
				H85.333V51.2h315.733c4.719,0,8.533-3.823,8.533-8.533c0-4.71-3.814-8.533-8.533-8.533H85.333V25.6
				c0-4.386,4.147-8.533,8.533-8.533h324.267c4.54,0,8.533,3.985,8.533,8.533v273.067c0,4.71,3.814,8.533,8.533,8.533
				s8.533-3.823,8.533-8.533V25.6c0-13.875-11.725-25.6-25.6-25.6H93.867c-13.875,0-25.6,11.725-25.6,25.6v273.067
				C68.267,303.377,72.09,307.2,76.8,307.2z"/>
			<path d="M256,247.467c0-4.71-3.823-8.533-8.533-8.533h-102.4c-4.71,0-8.533,3.823-8.533,8.533s3.823,8.533,8.533,8.533h102.4
				C252.177,256,256,252.177,256,247.467z"/>
			<path d="M247.467,307.2h51.2c4.719,0,8.533-3.823,8.533-8.533s-3.814-8.533-8.533-8.533h-51.2c-4.71,0-8.533,3.823-8.533,8.533
				S242.756,307.2,247.467,307.2z"/>
			<path d="M332.8,307.2h34.133c4.719,0,8.533-3.823,8.533-8.533s-3.814-8.533-8.533-8.533H332.8c-4.719,0-8.533,3.823-8.533,8.533
				S328.081,307.2,332.8,307.2z"/>
			<path d="M51.2,128c0-4.71-3.823-8.533-8.533-8.533c-4.71,0-8.533,3.823-8.533,8.533v187.733c0,14.114,11.486,25.6,25.6,25.6
				H153.6V384c0,14.114,11.486,25.6,25.6,25.6h153.6c13.875,0,25.6-11.725,25.6-25.6v-42.667h93.867c14.114,0,25.6-11.486,25.6-25.6
				V128c0-4.71-3.814-8.533-8.533-8.533S460.8,123.29,460.8,128v187.733c0,4.702-3.823,8.533-8.533,8.533h-102.4
				c-4.719,0-8.533,3.823-8.533,8.533V384c0,4.548-3.994,8.533-8.533,8.533H179.2c-4.702,0-8.533-3.831-8.533-8.533v-51.2
				c0-4.71-3.823-8.533-8.533-8.533h-102.4c-4.702,0-8.533-3.831-8.533-8.533V128z"/>
			<path d="M264.533,358.4h51.2c4.719,0,8.533-3.823,8.533-8.533s-3.814-8.533-8.533-8.533h-51.2c-4.71,0-8.533,3.823-8.533,8.533
				S259.823,358.4,264.533,358.4z"/>
			<path d="M358.4,247.467c0-4.71-3.814-8.533-8.533-8.533H281.6c-4.719,0-8.533,3.823-8.533,8.533S276.881,256,281.6,256h68.267
				C354.586,256,358.4,252.177,358.4,247.467z"/>
		</g>
	</g>
</g>
<g>
</g>
<g>
</g>
<g>
</g>
<g>
</g>
<g>
</g>
<g>
</g>
<g>
</g>
<g>
</g>
<g>
</g>
<g>
</g>
<g>
</g>
<g>
</g>
<g>
</g>
<g>
</g>
<g>
</g>
</svg>
