<?xml version="1.0" encoding="iso-8859-1"?>
<!-- Generator: Adobe Illustrator 19.0.0, SVG Export Plug-In . SVG Version: 6.00 Build 0)  -->
<svg version="1.1" id="Layer_1" xmlns="http://www.w3.org/2000/svg" xmlns:xlink="http://www.w3.org/1999/xlink" x="0px" y="0px"
	 viewBox="0 0 512 512" style="enable-background:new 0 0 512 512;" xml:space="preserve">
<g>
	<g>
		<g>
			<path d="M270.566,104.909c-3.337-3.337-8.73-3.337-12.066,0c-3.336,3.336-3.336,8.73,0,12.066l34.133,34.133
				c1.664,1.664,3.849,2.5,6.033,2.5c2.185,0,4.369-0.836,6.033-2.5c3.336-3.337,3.336-8.73,0-12.066L270.566,104.909z"/>
			<path d="M219.366,121.975c-3.336-3.337-8.73-3.337-12.066,0s-3.337,8.73,0,12.066l68.267,68.267c1.664,1.664,3.849,2.5,6.033,2.5
				c2.185,0,4.369-0.836,6.033-2.5c3.336-3.337,3.336-8.73,0-12.066L219.366,121.975z"/>
			<path d="M366.481,330.291l37.939,37.939c1.664,1.673,3.849,2.5,6.033,2.5c2.176,0,4.361-0.828,6.033-2.5
				c3.328-3.328,3.328-8.73,0-12.066l-39.962-39.962c20.881-32.094,33.075-70.332,33.075-111.394
				c0-112.922-91.878-204.8-204.8-204.8S0,91.887,0,204.809s91.878,204.8,204.8,204.8
				C270.464,409.609,328.977,378.505,366.481,330.291z M204.8,392.542c-103.518,0-187.733-84.215-187.733-187.733
				S101.282,17.075,204.8,17.075s187.733,84.215,187.733,187.733S308.318,392.542,204.8,392.542z"/>
			<path d="M204.8,34.142c-94.106,0-170.667,76.561-170.667,170.667S110.694,375.475,204.8,375.475s170.667-76.561,170.667-170.667
				S298.906,34.142,204.8,34.142z M204.8,358.409c-84.693,0-153.6-68.907-153.6-153.6s68.907-153.6,153.6-153.6
				s153.6,68.907,153.6,153.6S289.493,358.409,204.8,358.409z"/>
			<path d="M499.499,439.177l-59.802-59.793c-1.596-1.604-3.763-2.5-6.033-2.5h-0.008c-2.261,0-4.437,0.905-6.042,2.517
				l-24.064,24.192c-3.328,3.345-3.311,8.738,0.034,12.066c3.345,3.328,8.747,3.319,12.066-0.034l18.031-18.125l53.751,53.743
				c4.83,4.838,7.501,11.264,7.501,18.108c0,6.827-2.671,13.261-7.501,18.091c-9.975,9.975-26.206,9.992-36.198,0.009
				l-101.12-101.12c-3.328-3.328-8.73-3.328-12.066,0c-3.328,3.337-3.328,8.738,0,12.075l101.12,101.111
				c8.311,8.32,19.234,12.476,30.157,12.476s21.862-4.164,30.174-12.476C507.554,491.452,512,480.742,512,469.35
				C512,457.95,507.554,447.232,499.499,439.177z"/>
		</g>
	</g>
</g>
<g>
</g>
<g>
</g>
<g>
</g>
<g>
</g>
<g>
</g>
<g>
</g>
<g>
</g>
<g>
</g>
<g>
</g>
<g>
</g>
<g>
</g>
<g>
</g>
<g>
</g>
<g>
</g>
<g>
</g>
</svg>
