<?xml version="1.0" encoding="iso-8859-1"?>
<!-- Generator: Adobe Illustrator 19.0.0, SVG Export Plug-In . SVG Version: 6.00 Build 0)  -->
<svg version="1.1" id="Capa_1" xmlns="http://www.w3.org/2000/svg" xmlns:xlink="http://www.w3.org/1999/xlink" x="0px" y="0px"
	 viewBox="0 0 512 512" style="enable-background:new 0 0 512 512;" xml:space="preserve">
<g>
	<g>
		<g>
			<path d="M357.474,189.27h-1.405v-80.869c0-18.303-14.891-33.193-33.193-33.193c-18.303,0-33.194,14.891-33.194,33.193v1.499
				c-10.69,12.661-69.708,73.029-206.57,51.214c-0.076-0.012-0.152-0.013-0.228-0.024c-0.201-0.027-0.403-0.049-0.607-0.064
				c-0.165-0.012-0.331-0.021-0.498-0.025c-0.081-0.002-0.16-0.012-0.242-0.012h-11.55C31.396,160.99,0,192.385,0,230.976v19.423
				c0,38.591,31.396,69.986,69.987,69.986h11.551c0.085,0,0.168-0.011,0.252-0.013c0.161-0.004,0.321-0.013,0.48-0.024
				c0.208-0.015,0.413-0.037,0.617-0.065c0.075-0.01,0.15-0.011,0.225-0.023c8.258-1.316,16.21-2.316,23.893-3.064
				c-0.297,2.919-0.535,5.947-0.686,9.079c-1.818,37.69,9.298,71.993,32.148,99.2c6.023,7.171,14.862,11.296,24.25,11.316
				c0.024,0,0.047,0.001,0.071,0.001c9.41,0,18.291-4.113,24.372-11.29c8.937-10.544,10.097-25.512,2.887-37.244
				c-9.94-16.177-22.954-43.552-18.875-71.139c32.271,3.422,56.572,11.842,73.655,20.209c25.839,12.657,40.068,27.34,44.855,32.88
				v1.436c0,18.303,14.891,33.193,33.194,33.193c18.303,0,33.193-14.891,33.193-33.193v-80.869h1.405
				c27.985,0,50.752-22.768,50.752-50.753C408.226,212.038,385.458,189.27,357.474,189.27z M71.538,300.386h-1.551
				C42.424,300.385,20,277.961,20,250.399v-19.423c0-27.563,22.424-49.986,49.987-49.986h1.551V300.386z M173.008,398.73
				c2.672,4.348,2.229,9.91-1.104,13.843c-2.274,2.683-5.595,4.221-9.115,4.221c-0.009,0-0.018-0.001-0.026-0.001
				c-3.533-0.007-6.722-1.492-8.979-4.18c-19.69-23.444-28.948-51.942-27.517-84.701c0.186-4.256,0.553-8.307,1.029-12.114
				c8.327-0.33,16.279-0.342,23.856-0.074c-1.306,10.16-0.892,20.859,1.255,32.044C156.43,368.727,165.83,387.049,173.008,398.73z
				 M289.683,342.466c-8.371-6.963-19.819-14.999-34.713-22.433c-18.244-9.106-43.945-18.302-77.771-22.358
				c-6.696-0.803-13.718-1.399-21.057-1.758c-5.143-0.252-10.435-0.392-15.897-0.392c-2.973,0-6.008,0.052-9.078,0.133
				c-6.728,0.177-13.677,0.547-20.869,1.148c-6.087,0.509-12.337,1.175-18.759,2.019V182.547
				c78.778,10.32,132.146-5.956,163.499-21.905c14.857-7.558,26.283-15.714,34.645-22.781V342.466z M336.07,199.271v81.505v90.869
				c0,7.274-5.918,13.193-13.193,13.193c-7.275,0-13.194-5.919-13.194-13.193v-4.973V113.374v-4.972
				c0-7.274,5.919-13.193,13.194-13.193c7.275,0,13.193,5.919,13.193,13.193V199.271z M357.475,270.776h-1.405v-61.505h1.405
				c16.957,0,30.752,13.795,30.752,30.752C388.227,256.98,374.432,270.776,357.475,270.776z"/>
			<path d="M502,230.023h-56.699c-5.523,0-10,4.478-10,10c0,5.522,4.477,10,10,10H502c5.523,0,10-4.478,10-10
				C512,234.501,507.523,230.023,502,230.023z"/>
			<path d="M425.086,187.031c2.531,0,5.063-0.955,7.011-2.869l26.6-26.154c3.939-3.873,3.992-10.205,0.12-14.142
				c-3.873-3.939-10.204-3.991-14.142-0.12l-26.6,26.154c-3.938,3.872-3.992,10.204-0.12,14.142
				C419.913,186.033,422.499,187.031,425.086,187.031z"/>
			<path d="M432.097,295.884c-3.939-3.871-10.27-3.819-14.142,0.12c-3.872,3.938-3.818,10.27,0.12,14.142l26.6,26.154
				c1.948,1.914,4.479,2.869,7.011,2.869c2.587,0,5.174-0.998,7.131-2.989c3.872-3.938,3.818-10.27-0.12-14.142L432.097,295.884z"/>
			<path d="M236.775,196.904c-2.288,0.822-4.712,1.621-7.205,2.371c-4.868,1.465-10.174,2.802-15.77,3.973
				c-42.149,8.822-90.423,6.248-90.905,6.222c-5.502-0.298-10.234,3.907-10.545,9.421c-0.311,5.514,3.906,10.235,9.42,10.546
				c0.767,0.043,7.966,0.431,19,0.431c18.846,0,48.875-1.132,77.129-7.045c6.154-1.288,12.02-2.768,17.437-4.397
				c2.831-0.853,5.593-1.762,8.21-2.704c5.197-1.869,7.894-7.598,6.024-12.795C247.7,197.731,241.971,195.033,236.775,196.904z"/>
			<path d="M263.43,194.281c0.25,0.6,0.56,1.18,0.92,1.72c0.37,0.55,0.79,1.06,1.25,1.52c0.46,0.46,0.97,0.88,1.52,1.25
				c0.54,0.36,1.12,0.67,1.72,0.92c0.61,0.25,1.23,0.44,1.87,0.57c0.65,0.13,1.3,0.19,1.96,0.19c0.65,0,1.31-0.061,1.95-0.19
				c0.64-0.13,1.27-0.32,1.87-0.57c0.6-0.25,1.19-0.56,1.73-0.92c0.54-0.37,1.06-0.79,1.52-1.25c0.46-0.46,0.88-0.97,1.24-1.52
				c0.36-0.54,0.67-1.12,0.92-1.72c0.25-0.61,0.44-1.24,0.57-1.87c0.13-0.65,0.2-1.311,0.2-1.96c0-0.65-0.07-1.311-0.2-1.95
				c-0.13-0.641-0.32-1.271-0.57-1.87c-0.25-0.61-0.56-1.19-0.92-1.73c-0.36-0.55-0.78-1.06-1.24-1.52
				c-0.46-0.46-0.97-0.88-1.52-1.24c-0.54-0.359-1.13-0.67-1.73-0.92c-0.6-0.25-1.23-0.439-1.87-0.57c-1.29-0.26-2.62-0.26-3.91,0
				c-0.64,0.131-1.26,0.32-1.87,0.57c-0.6,0.25-1.18,0.561-1.72,0.92c-0.55,0.36-1.06,0.78-1.53,1.24
				c-0.46,0.46-0.87,0.97-1.24,1.52c-0.36,0.54-0.67,1.12-0.92,1.73c-0.25,0.6-0.44,1.229-0.57,1.87c-0.13,0.64-0.19,1.3-0.19,1.95
				c0,0.649,0.06,1.31,0.19,1.96C262.99,193.041,263.18,193.67,263.43,194.281z"/>
		</g>
	</g>
</g>
<g>
</g>
<g>
</g>
<g>
</g>
<g>
</g>
<g>
</g>
<g>
</g>
<g>
</g>
<g>
</g>
<g>
</g>
<g>
</g>
<g>
</g>
<g>
</g>
<g>
</g>
<g>
</g>
<g>
</g>
</svg>
