<?xml version="1.0" encoding="iso-8859-1"?>
<!-- Generator: Adobe Illustrator 19.0.0, SVG Export Plug-In . SVG Version: 6.00 Build 0)  -->
<svg xmlns="http://www.w3.org/2000/svg" xmlns:xlink="http://www.w3.org/1999/xlink" version="1.1" id="Layer_1" x="0px" y="0px" viewBox="0 0 512 512" style="enable-background:new 0 0 512 512;" xml:space="preserve" width="512px" height="512px">
<g>
	<g>
		<g>
			<path d="M384,102.4c-4.71,0-8.533,3.823-8.533,8.533v85.333c0,4.71,3.823,8.533,8.533,8.533s8.533-3.823,8.533-8.533v-85.333     C392.533,106.223,388.71,102.4,384,102.4z" fill="#FFFFFF"/>
			<path d="M332.8,110.933v85.333c0,4.71,3.823,8.533,8.533,8.533c4.71,0,8.533-3.823,8.533-8.533v-85.333     c0-4.71-3.823-8.533-8.533-8.533C336.623,102.4,332.8,106.223,332.8,110.933z" fill="#FFFFFF"/>
			<path d="M298.667,204.8c4.71,0,8.533-3.823,8.533-8.533V79.249l34.133-54.613l27.273,43.631H332.8     c-4.71,0-8.533,3.823-8.533,8.533s3.823,8.533,8.533,8.533H384c3.106,0,5.956-1.681,7.467-4.395     c1.502-2.714,1.417-6.033-0.23-8.661L348.57,4.011c-3.123-4.992-11.349-4.992-14.472,0L291.43,72.277     c-0.845,1.357-1.297,2.918-1.297,4.523v119.467C290.133,200.977,293.956,204.8,298.667,204.8z" fill="#FFFFFF"/>
			<path d="M426.667,221.867H85.333c-9.412,0-17.067,7.654-17.067,17.067v34.133c0,9.412,7.654,17.067,17.067,17.067v179.2     C85.333,492.86,104.474,512,128,512h256c23.526,0,42.667-19.14,42.667-42.667v-153.6c0-4.71-3.823-8.533-8.533-8.533     s-8.533,3.823-8.533,8.533v153.6c0,14.114-11.486,25.6-25.6,25.6H128c-14.114,0-25.6-11.486-25.6-25.6V281.6     c0-4.71-3.823-8.533-8.533-8.533h-8.533v-34.133h341.333v34.133H128c-4.71,0-8.533,3.823-8.533,8.533s3.823,8.533,8.533,8.533     h298.667c9.412,0,17.067-7.654,17.067-17.067v-34.133C443.733,229.521,436.079,221.867,426.667,221.867z" fill="#FFFFFF"/>
			<path d="M366.933,409.6c-4.71,0-8.533,3.823-8.533,8.533V435.2c0,4.71,3.823,8.533,8.533,8.533s8.533-3.823,8.533-8.533v-17.067     C375.467,413.423,371.644,409.6,366.933,409.6z" fill="#FFFFFF"/>
			<path d="M128,204.8h17.067c4.71,0,8.533-3.823,8.533-8.533s-3.823-8.533-8.533-8.533h-8.533v-17.067H179.2     c4.71,0,8.533-3.823,8.533-8.533c0-4.71-3.823-8.533-8.533-8.533h-42.667v-17.067h8.533c4.71,0,8.533-3.823,8.533-8.533     s-3.823-8.533-8.533-8.533h-8.533V102.4h8.533c4.71,0,8.533-3.823,8.533-8.533c0-4.71-3.823-8.533-8.533-8.533h-8.533V68.267     H179.2c4.71,0,8.533-3.823,8.533-8.533S183.91,51.2,179.2,51.2h-42.667V17.067h102.4v179.2c0,4.71,3.823,8.533,8.533,8.533     s8.533-3.823,8.533-8.533V8.533C256,3.823,252.177,0,247.467,0H128c-4.71,0-8.533,3.823-8.533,8.533v187.733     C119.467,200.977,123.29,204.8,128,204.8z" fill="#FFFFFF"/>
			<path d="M375.467,315.733c0-4.71-3.823-8.533-8.533-8.533s-8.533,3.823-8.533,8.533V384c0,4.71,3.823,8.533,8.533,8.533     s8.533-3.823,8.533-8.533V315.733z" fill="#FFFFFF"/>
		</g>
	</g>
</g>
<g>
</g>
<g>
</g>
<g>
</g>
<g>
</g>
<g>
</g>
<g>
</g>
<g>
</g>
<g>
</g>
<g>
</g>
<g>
</g>
<g>
</g>
<g>
</g>
<g>
</g>
<g>
</g>
<g>
</g>
</svg>
