<?xml version="1.0" encoding="iso-8859-1"?>
<!-- Generator: Adobe Illustrator 19.0.0, SVG Export Plug-In . SVG Version: 6.00 Build 0)  -->
<svg version="1.1" id="Layer_1" xmlns="http://www.w3.org/2000/svg" xmlns:xlink="http://www.w3.org/1999/xlink" x="0px" y="0px"
	 viewBox="0 0 512 512" style="enable-background:new 0 0 512 512;" xml:space="preserve">
<g>
	<g>
		<g>
			<path d="M153.6,366.933c4.719,0,8.533-3.823,8.533-8.533s-3.814-8.533-8.533-8.533s-8.533,3.823-8.533,8.533
				S148.881,366.933,153.6,366.933z"/>
			<path d="M435.2,0H76.8C53.274,0,34.133,19.14,34.133,42.667v409.6c0,20.608,14.686,37.845,34.133,41.805v9.395
				c0,4.71,3.814,8.533,8.533,8.533s8.533-3.823,8.533-8.533V486.4c0-4.71-3.814-8.533-8.533-8.533c-14.114,0-25.6-11.486-25.6-25.6
				V409.6h196.267v59.733c0,4.71,3.814,8.533,8.533,8.533c4.719,0,8.533-3.823,8.533-8.533V409.6H460.8v42.667
				c0,14.114-11.486,25.6-25.6,25.6c-4.719,0-8.533,3.823-8.533,8.533v17.067c0,4.71,3.814,8.533,8.533,8.533
				s8.533-3.823,8.533-8.533v-9.395c19.447-3.959,34.133-21.197,34.133-41.805v-409.6C477.867,19.14,458.726,0,435.2,0z
				 M247.467,392.533H51.2v-68.267h196.267V392.533z M247.467,307.2H51.2V42.667c0-14.114,11.486-25.6,25.6-25.6h170.667V307.2z
				 M460.8,392.533H264.533v-68.267H460.8V392.533z M460.8,307.2H264.533V17.067H435.2c14.114,0,25.6,11.486,25.6,25.6V307.2z"/>
			<path d="M102.4,486.4c0,4.71,3.814,8.533,8.533,8.533h290.133c4.719,0,8.533-3.823,8.533-8.533s-3.814-8.533-8.533-8.533H256
				H110.933C106.214,477.867,102.4,481.69,102.4,486.4z"/>
			<path d="M221.867,273.067c4.719,0,8.533-3.823,8.533-8.533v-68.267c0-4.71-3.814-8.533-8.533-8.533s-8.533,3.823-8.533,8.533
				v68.267C213.333,269.244,217.148,273.067,221.867,273.067z"/>
			<path d="M290.133,187.733c-4.719,0-8.533,3.823-8.533,8.533v68.267c0,4.71,3.814,8.533,8.533,8.533
				c4.719,0,8.533-3.823,8.533-8.533v-68.267C298.667,191.556,294.852,187.733,290.133,187.733z"/>
			<path d="M349.867,443.733c0,4.71,3.814,8.533,8.533,8.533c4.719,0,8.533-3.823,8.533-8.533s-3.814-8.533-8.533-8.533
				C353.681,435.2,349.867,439.023,349.867,443.733z"/>
			<path d="M162.133,443.733c0-4.71-3.814-8.533-8.533-8.533s-8.533,3.823-8.533,8.533s3.814,8.533,8.533,8.533
				S162.133,448.444,162.133,443.733z"/>
			<path d="M358.4,366.933c4.719,0,8.533-3.823,8.533-8.533s-3.814-8.533-8.533-8.533c-4.719,0-8.533,3.823-8.533,8.533
				S353.681,366.933,358.4,366.933z"/>
		</g>
	</g>
</g>
<g>
</g>
<g>
</g>
<g>
</g>
<g>
</g>
<g>
</g>
<g>
</g>
<g>
</g>
<g>
</g>
<g>
</g>
<g>
</g>
<g>
</g>
<g>
</g>
<g>
</g>
<g>
</g>
<g>
</g>
</svg>
